<?xml version="1.0" encoding="UTF-8"?><svg id="Ebene_2" xmlns="http://www.w3.org/2000/svg" viewBox="0 0 383.16 383.67"><defs><style>.cls-1{fill:#a7c0b0;stroke-width:0px;}</style></defs><g id="Ebene_1-2"><path class="cls-1" d="m0,204.02c0-7.98,0-15.97,0-23.95.46-3.57.93-7.13,1.38-10.7,6.39-50.84,29.27-92.88,68.72-125.34C132.18-7.04,217.71-14.59,287,26.15c61.8,36.35,93.9,91.65,96.08,163.43,1.19,39.21-9.74,75.5-31.67,108.06-30.47,45.22-72.68,73.04-126.4,83.06-7.07,1.32-14.27,2-21.41,2.97h-23.95c-.96-.21-1.91-.54-2.87-.62-38.17-3.04-72.53-16.12-102.62-39.78-38.73-30.44-62.62-70-71.29-118.58-1.22-6.84-1.92-13.78-2.86-20.68Zm79.49-88.93c1.27,1.36,2.14,2.35,3.07,3.28,29.62,29.63,59.24,59.25,88.87,88.87,3.61,3.61,6.73,8.51,11.11,10.32,4.38,1.81,10.07.69,15.16.44,1.88-.09,4.17-.92,5.47-2.21,32.8-32.62,65.49-65.35,98.19-98.06.73-.73,1.36-1.57,2.28-2.63H79.49Zm153.15,89.61c-.7.66-1.62,1.47-2.48,2.34-6.88,6.87-13.61,13.9-20.73,20.52-1.89,1.76-4.92,3-7.51,3.16-6.83.43-13.72.43-20.55,0-2.59-.16-5.62-1.39-7.51-3.15-7.21-6.71-14.02-13.83-21-20.78-.84-.84-1.73-1.61-2.6-2.42.18.39.36.78.53,1.17-21.33,21.31-42.66,42.62-63.47,63.42h209.58c-21.33-21.32-42.62-42.62-64.27-64.26ZM70.27,125v139.78c23.35-23.34,46.73-46.72,69.9-69.89-23.01-23.01-46.34-46.34-69.9-69.89Zm242.83.3c-23.49,23.49-46.88,46.88-69.46,69.46,23.06,23.06,46.42,46.43,69.46,69.47V125.3Z"/></g></svg>