<?xml version="1.0" encoding="UTF-8"?><svg id="Ebene_2" xmlns="http://www.w3.org/2000/svg" viewBox="0 0 334.95 333.38"><defs><style>.cls-1{fill:#a7c0b0;stroke-width:0px;}</style></defs><g id="Ebene_1-2"><path class="cls-1" d="m209.94,333.38c-5.84-.92-12.01-.92-17.46-2.9-83.56-30.4-142.7-86.34-175.84-169.17C8.94,142.01,3.84,121.99.58,101.47c-2.26-14.18,2.07-25.78,13.02-34.97,8.3-6.97,16.6-13.94,24.96-20.85,16.83-13.91,38.33-11.97,52.45,4.73,7.16,8.47,14.28,16.97,21.34,25.53,13.88,16.82,11.92,38.34-4.74,52.48-4.08,3.47-8.26,6.83-12.31,10.34-5.07,4.4-6.15,9.47-3.23,15.42,15.11,30.78,36.51,56.33,64.06,76.74,5.53,4.09,10.65,3.95,16.04-.4,4.37-3.52,8.6-7.2,12.94-10.75,16.08-13.14,37.65-11.32,51.14,4.42,7.62,8.89,15.12,17.89,22.53,26.97,13.05,15.99,11.35,37.3-4.18,50.87-8.91,7.79-18.1,15.26-27.23,22.79-5.01,4.13-10.79,6.65-17.27,7.49-.05.36-.11.72-.16,1.09Z"/><path class="cls-1" d="m333.76,140.83c.48,10.6,1.11,19.42,1.19,28.25.05,5.2-3.92,9.46-8.9,10.72-4.81,1.21-10.2-.64-12.69-4.98-1.24-2.17-1.99-4.9-2.06-7.4-.38-13.52-2.01-26.8-5.8-39.84-16.18-55.68-64.11-96.2-121.75-102.69-5.68-.64-11.43-.63-17.12-1.16-5.24-.49-9.3-4.39-10.26-9.42-1.02-5.38,1.21-10.49,6.1-12.83C164.54.49,167.03,0,169.31,0c67.98.11,131.29,44.15,154.82,108.02,4.11,11.17,6.75,22.88,9.63,32.8Z"/><path class="cls-1" d="m286.28,150.25c.28,5.34.76,11.3.86,17.27.11,7.23-5.07,12.39-12.1,12.42-6.49.03-11.66-5.45-11.74-12.45-.61-50.73-38.15-91.18-88.58-95.39-2.23-.19-4.48-.15-6.72-.26-7.12-.33-12.43-5.84-12.12-12.54.31-6.62,5.83-11.57,12.79-11.47,53.34.78,98.94,35.48,113.98,86.84,1.43,4.89,2.33,9.94,3.63,15.59Z"/><path class="cls-1" d="m238.7,156.7c.19,3.23.44,6.46.55,9.7.27,7.77-4.59,13.16-11.95,13.31-6.67.14-11.8-5.28-12-12.6-.48-18.2-8.78-31.86-24.27-41.18-6.87-4.13-14.47-5.92-22.45-6.25-7.74-.33-13.12-5.39-12.88-12.09.26-7.19,5.7-11.91,13.53-11.75,34.75.75,64.07,26.51,69.46,60.86Z"/></g></svg>