<?xml version="1.0" encoding="UTF-8"?><svg id="Ebene_2" xmlns="http://www.w3.org/2000/svg" viewBox="0 0 383.67 383.23"><defs><style>.cls-1{fill:#a7c0b0;stroke-width:0px;}</style></defs><g id="Ebene_1-2"><path class="cls-1" d="m1.5,383.23c-.5-.5-1-1-1.5-1.5.46-1.12,1.03-2.21,1.35-3.37,8.25-29.89,16.43-59.79,24.76-89.66.76-2.74.45-4.88-.89-7.36C.46,235.54-4.97,187.34,8.9,137.3,34.28,45.7,127.06-10.87,219.49,1.75c43.48,5.94,81.06,24.54,110.99,57.11,48.58,52.87,64.57,114.7,45.14,183.58-32.55,115.45-165.11,171.36-271.53,116.02-1.66-.86-4.08-1.15-5.89-.7-22.57,5.71-45.11,11.56-67.63,17.47-9.72,2.55-19.38,5.32-29.07,7.99Zm44.56-46.01c1.8-.4,2.88-.6,3.93-.87,17.36-4.49,34.73-8.94,52.05-13.55,2.73-.73,4.83-.43,7.28,1.03,37.58,22.48,77.75,29.25,120.44,18.97,82.58-19.89,134.48-99.9,118.83-182.89-15.24-80.79-91.89-137.2-173.84-127.55-47.47,5.59-85.26,28.17-112.42,67.46-23.74,34.35-32.7,72.54-26.48,114.04,3.38,22.54,11.78,43.17,24.24,62.17,1.53,2.33,1.8,4.33.98,6.91-1.43,4.5-2.57,9.11-3.83,13.67-3.67,13.31-7.33,26.63-11.18,40.62Z"/><path class="cls-1" d="m242.86,280.24c-12.92.52-23.89-4.48-35.19-8.37-32.2-11.09-57.07-32-78.3-57.89-10.2-12.44-20.42-24.84-27.15-39.66-7.07-15.58-9.94-31.56-2.57-47.66,3.16-6.91,8.04-13.09,12.58-19.28,2.76-3.76,7.09-5.49,11.77-5.66,4.23-.16,8.47-.09,12.7.12,3.75.19,5.65,2.98,6.99,6,3.02,6.83,5.86,13.74,8.76,20.62,2.32,5.51,4.5,11.08,6.99,16.5,1.73,3.77,1.67,7.26-.76,10.57-3.54,4.81-7.12,9.59-10.87,14.23-3.92,4.85-4.12,6.28-.89,11.64,15.22,25.25,36.18,43.84,63.63,54.94,5.9,2.38,7.89,2.02,11.98-2.95,4.52-5.48,8.98-11,13.39-16.58,2.94-3.73,4.81-4.7,9.36-2.97,6.27,2.39,12.36,5.25,18.46,8.05,4.18,1.92,8.2,4.22,12.41,6.07,3,1.32,6.23,2.1,9.29,3.29,2.58,1.01,3.86,3.08,3.82,5.86-.18,12.81-2.89,24.43-14.27,32.41-9.87,6.92-20.42,11.41-32.12,10.73Z"/></g></svg>